<svg width="48" height="48" viewBox="0 0 48 48" fill="none" xmlns="http://www.w3.org/2000/svg">
<path d="M47.9346 40.209C47.9346 42.8621 45.8061 45 43.1436 45H4.79102C2.13789 45 0 42.8621 0 40.209L0.0185547 24.1123L24 35.916L47.9346 23.9531V40.209ZM28.7627 0C31.4157 0.000157576 33.5527 2.12861 33.5527 4.79102V9.59082H43.1436C45.7966 9.59082 47.9344 11.7185 47.9346 14.3809V19.7715L24 31.7246L0.00976562 19.9219L0.0185547 14.3721C0.0185547 11.7189 2.12852 9.58105 4.79102 9.58105H14.3809V4.79102C14.3809 2.13789 16.5094 0 19.1719 0H28.7627ZM15 18.5439V22.1348L24 26.8125L33 22.1348V18.5439H15ZM19.1719 4.79102V9.58105H28.7627V4.79102H19.1719Z" fill="#5D7798"/>
</svg>
