<svg width="48" height="48" viewBox="0 0 48 48" fill="none" xmlns="http://www.w3.org/2000/svg">
<g clip-path="url(#clip0_79_2213)">
<path d="M24 0C37.2544 0 48 10.7456 48 24C48 37.2544 37.2544 48 24 48C10.7456 48 0 37.2544 0 24C0 10.7456 10.7456 0 24 0ZM11.2734 13.875C11.0533 13.8746 10.8353 13.9179 10.6318 14.002C10.4283 14.0861 10.2426 14.2095 10.0869 14.3652C9.93131 14.5209 9.8077 14.7058 9.72363 14.9092C9.63959 15.1126 9.59735 15.3307 9.59766 15.5508V32.4541C9.5979 32.6739 9.64119 32.8918 9.72559 33.0947C9.80993 33.2975 9.93335 33.4816 10.0889 33.6367C10.2445 33.7919 10.4296 33.9153 10.6328 33.999C10.836 34.0827 11.0537 34.1255 11.2734 34.125H36.7266C37.1709 34.1248 37.5969 33.9479 37.9111 33.6338C38.2253 33.3196 38.402 32.8935 38.4023 32.4492V15.5508C38.4007 15.1059 38.2233 14.6793 37.9082 14.3652C37.593 14.0512 37.1657 13.875 36.7207 13.875H11.2734ZM16.7012 18.2061C17.6246 18.3354 18.346 18.7162 18.8691 19.3574C19.3923 19.9987 19.6514 20.8256 19.6514 21.8438H17.3838C17.3838 21.2194 17.2548 20.7469 16.9961 20.4375C16.8717 20.2855 16.7139 20.1643 16.5352 20.083C16.3564 20.0017 16.1612 19.9626 15.9648 19.9688C15.5373 19.9688 15.205 20.1038 14.9688 20.3457C14.7327 20.5876 14.6152 20.9252 14.6152 21.3525C14.6011 21.7037 14.7239 22.0465 14.958 22.3086C15.1886 22.5505 15.6159 22.7928 16.2402 23.0459C16.7653 23.2523 17.2786 23.4882 17.7764 23.7539C18.1485 23.9557 18.4909 24.2083 18.7939 24.5039C19.0662 24.7782 19.2822 25.1038 19.4297 25.4609C19.5835 25.8587 19.6584 26.2826 19.6494 26.709C19.6494 27.5939 19.3676 28.314 18.8164 28.8652C18.2652 29.4164 17.5006 29.7434 16.5332 29.8447V31.4062H15.29V29.8496C14.2214 29.7371 13.3887 29.3607 12.8037 28.7139C12.2188 28.0671 11.921 27.2121 11.9209 26.1436H14.1807C14.1807 26.7621 14.3326 27.2405 14.625 27.5723C14.9175 27.904 15.3453 28.0664 15.8965 28.0664C16.3577 28.0664 16.7181 27.943 16.9824 27.7012C17.2466 27.4593 17.3809 27.1441 17.3809 26.7168C17.3808 26.2895 17.2634 25.9464 17.0273 25.6934C16.7911 25.4402 16.3855 25.2098 15.8174 24.9961C15.3155 24.8098 14.8237 24.5975 14.3438 24.3604C13.9583 24.1673 13.6006 23.9225 13.2812 23.6328C12.9876 23.3617 12.7545 23.0318 12.5957 22.665C12.4242 22.246 12.3416 21.7954 12.3535 21.3428C12.3536 20.4598 12.6348 19.7399 13.1973 19.1719C13.7598 18.6038 14.5098 18.2813 15.4473 18.1875V16.5078H16.7012V18.2061ZM33.0586 31.0195H22.3662V28.4883H33.0586V31.0195ZM35.8711 25.3164H22.3662V22.7852H35.8711V25.3164ZM33.0586 19.6631H22.3662V17.1318H33.0586V19.6631Z" fill="#5D7798"/>
</g>
<defs>
<clipPath id="clip0_79_2213">
<rect width="48" height="48" fill="white"/>
</clipPath>
</defs>
</svg>
