<svg width="48" height="48" viewBox="0 0 48 48" fill="none" xmlns="http://www.w3.org/2000/svg">
<g clip-path="url(#clip0_79_2190)">
<path d="M38.7456 24.0557C40.089 24.3629 41.3721 24.8937 42.5396 25.626L41.3696 28.4473C42.2352 29.0593 42.9906 29.8144 43.603 30.6797L46.4282 29.5107C46.7932 30.0934 47.1107 30.7046 47.3784 31.3379C47.6439 31.9742 47.8442 32.6359 47.9771 33.3125L45.1753 34.4717C45.2686 34.9931 45.3171 35.522 45.3198 36.0518C45.3176 36.5813 45.2691 37.1097 45.1753 37.6309L48.0005 38.8008C47.69 40.1429 47.1567 41.4237 46.4233 42.5898L43.604 41.4238C42.9914 42.2885 42.2363 43.0427 41.3716 43.6553L42.5386 46.4717C41.959 46.843 41.3474 47.1631 40.7124 47.4287C40.0745 47.6866 39.4176 47.8953 38.7476 48.0518L37.5786 45.2275C36.535 45.42 35.465 45.42 34.4214 45.2275L33.2524 48.0469C31.9094 47.7397 30.6275 47.2087 29.4604 46.4766L30.6294 43.6543C29.7639 43.0419 29.0084 42.2873 28.396 41.4219L25.5591 42.5967C25.2069 42.0073 24.8927 41.395 24.6206 40.7646C24.3594 40.1274 24.1562 39.4676 24.0132 38.7939L26.8247 37.6299C26.6323 36.5857 26.6323 35.5149 26.8247 34.4707L24.0005 33.3018C24.3117 31.9599 24.8433 30.679 25.5747 29.5117L28.396 30.6797C29.0087 29.8149 29.7641 29.0602 30.6294 28.4482L29.4614 25.6309C30.0407 25.2585 30.6523 24.9377 31.2876 24.6719C31.9244 24.4129 32.5818 24.2075 33.2524 24.0566L34.4194 26.876C35.4633 26.6835 36.5337 26.6835 37.5776 26.876L38.7456 24.0557ZM38.7661 29.4785C37.4455 28.9315 35.9923 28.7886 34.5903 29.0674C33.1883 29.3463 31.9 30.0342 30.8892 31.0449C29.8783 32.0558 29.1895 33.344 28.9106 34.7461C28.6318 36.1481 28.7757 37.6012 29.3228 38.9219C29.8698 40.2426 30.7962 41.3718 31.9849 42.166C33.1734 42.9601 34.5711 43.3838 36.0005 43.3838C36.9495 43.3837 37.8893 43.1972 38.7661 42.834C39.643 42.4707 40.4397 41.9378 41.1108 41.2666C41.7819 40.5955 42.314 39.7987 42.6772 38.9219C43.0405 38.045 43.228 37.1054 43.228 36.1562C43.228 34.7267 42.8035 33.3292 42.0093 32.1406C41.2151 30.9521 40.0867 30.0256 38.7661 29.4785ZM18.0308 0C27.9953 0 36.0003 8.16734 36.0005 17.9688C36.0005 18.9852 35.9139 20.0002 35.7417 21.002C34.4564 21.0229 33.1787 21.2088 31.9409 21.5557C32.2503 20.3852 32.4069 19.1794 32.4067 17.9688C32.4066 10.1277 25.8719 3.59375 18.0308 3.59375C10.1907 3.59395 3.65691 10.1278 3.65674 17.9688C3.65674 25.809 10.1906 32.3435 18.0308 32.3438C19.2248 32.3439 20.4143 32.1914 21.5698 31.8906C21.219 33.1276 21.0291 34.4049 21.0034 35.6904C18.4283 36.1214 15.7895 35.986 13.272 35.2939C10.7546 34.6019 8.41814 33.3701 6.42529 31.6836C4.43232 29.9969 2.83069 27.8958 1.73193 25.5273C0.633293 23.159 0.0637255 20.5795 0.0629883 17.9688C0.063155 8.00432 8.23039 0.000199389 18.0308 0ZM18.0542 18.5312L25.7622 22.7949L24.8013 24.7393L15.8062 19.7656V8.98438H18.0542V18.5312Z" fill="#5D7798"/>
</g>
<defs>
<clipPath id="clip0_79_2190">
<rect width="48" height="48" fill="white"/>
</clipPath>
</defs>
</svg>
